<svg width="282" height="71" viewBox="0 0 282 71" fill="none" xmlns="http://www.w3.org/2000/svg">
<mask id="path-1-outside-1_1_473" maskUnits="userSpaceOnUse" x="-1" y="-1" width="284" height="73" fill="black">
<rect fill="white" x="-1" y="-1" width="284" height="73"/>
<path d="M85.6501 26.432C83.6581 26.432 81.8221 26.12 80.1421 25.496C78.4861 24.848 77.0341 23.936 75.7861 22.76C74.5621 21.584 73.6021 20.204 72.9061 18.62C72.2341 17.036 71.8981 15.296 71.8981 13.4C71.8981 11.504 72.2341 9.764 72.9061 8.18C73.6021 6.596 74.5741 5.216 75.8221 4.04C77.0701 2.864 78.5341 1.964 80.2141 1.34C81.8941 0.691999 83.7421 0.368 85.7581 0.368C87.9901 0.368 89.9941 0.739999 91.7701 1.484C93.5701 2.228 95.0821 3.308 96.3061 4.724L92.5621 8.18C91.6501 7.22 90.6541 6.512 89.5741 6.056C88.4941 5.576 87.3181 5.336 86.0461 5.336C84.8221 5.336 83.7061 5.528 82.6981 5.912C81.6901 6.296 80.8141 6.848 80.0701 7.568C79.3501 8.288 78.7861 9.14 78.3781 10.124C77.9941 11.108 77.8021 12.2 77.8021 13.4C77.8021 14.576 77.9941 15.656 78.3781 16.64C78.7861 17.624 79.3501 18.488 80.0701 19.232C80.8141 19.952 81.6781 20.504 82.6621 20.888C83.6701 21.272 84.7741 21.464 85.9741 21.464C87.1261 21.464 88.2421 21.284 89.3221 20.924C90.4261 20.54 91.4941 19.904 92.5261 19.016L95.8381 23.228C94.4701 24.26 92.8741 25.052 91.0501 25.604C89.2501 26.156 87.4501 26.432 85.6501 26.432ZM90.5101 22.472V13.004H95.8381V23.228L90.5101 22.472ZM106.62 10.952H118.752V15.488H106.62V10.952ZM107.052 21.32H120.768V26H101.256V0.799998H120.3V5.48H107.052V21.32ZM130.628 26V5.552H122.564V0.799998H144.524V5.552H136.46V26H130.628ZM154.545 26L165.777 0.799998H171.537L182.805 26H176.685L167.469 3.752H169.773L160.521 26H154.545ZM160.161 20.6L161.709 16.172H174.669L176.253 20.6H160.161ZM185.42 26V0.799998H190.244L205.112 18.944H202.772V0.799998H208.532V26H203.744L188.84 7.856H191.18V26H185.42Z"/>
<path d="M0.568078 70V44.8H6.40008V70H0.568078ZM12.3806 70V44.8H17.2046L32.0726 62.944H29.7326V44.8H35.4926V70H30.7046L15.8006 51.856H18.1406V70H12.3806ZM46.6748 70V49.552H38.6108V44.8H60.5708V49.552H52.5068V70H46.6748ZM69.0727 54.952H81.2047V59.488H69.0727V54.952ZM69.5047 65.32H83.2207V70H63.7087V44.8H82.7527V49.48H69.5047V65.32ZM87.861 70V44.8H98.769C101.025 44.8 102.969 45.172 104.601 45.916C106.233 46.636 107.493 47.68 108.381 49.048C109.269 50.416 109.713 52.048 109.713 53.944C109.713 55.816 109.269 57.436 108.381 58.804C107.493 60.148 106.233 61.18 104.601 61.9C102.969 62.62 101.025 62.98 98.769 62.98H91.101L93.693 60.424V70H87.861ZM103.881 70L97.581 60.856H103.809L110.181 70H103.881ZM93.693 61.072L91.101 58.336H98.445C100.245 58.336 101.589 57.952 102.477 57.184C103.365 56.392 103.809 55.312 103.809 53.944C103.809 52.552 103.365 51.472 102.477 50.704C101.589 49.936 100.245 49.552 98.445 49.552H91.101L93.693 46.78V61.072ZM121.894 70L111.022 44.8H117.322L126.826 67.12H123.118L132.766 44.8H138.562L127.654 70H121.894ZM146.03 54.952H158.162V59.488H146.03V54.952ZM146.462 65.32H160.178V70H140.666V44.8H159.71V49.48H146.462V65.32ZM164.818 70V44.8H169.642L184.51 62.944H182.17V44.8H187.93V70H183.142L168.238 51.856H170.578V70H164.818ZM199.112 70V49.552H191.048V44.8H213.008V49.552H204.944V70H199.112ZM216.146 70V44.8H221.978V70H216.146ZM240.199 70.432C238.207 70.432 236.359 70.108 234.655 69.46C232.975 68.812 231.511 67.9 230.263 66.724C229.039 65.548 228.079 64.168 227.383 62.584C226.711 61 226.375 59.272 226.375 57.4C226.375 55.528 226.711 53.8 227.383 52.216C228.079 50.632 229.051 49.252 230.299 48.076C231.547 46.9 233.011 45.988 234.691 45.34C236.371 44.692 238.195 44.368 240.163 44.368C242.155 44.368 243.979 44.692 245.635 45.34C247.315 45.988 248.767 46.9 249.991 48.076C251.239 49.252 252.211 50.632 252.907 52.216C253.603 53.776 253.951 55.504 253.951 57.4C253.951 59.272 253.603 61.012 252.907 62.62C252.211 64.204 251.239 65.584 249.991 66.76C248.767 67.912 247.315 68.812 245.635 69.46C243.979 70.108 242.167 70.432 240.199 70.432ZM240.163 65.464C241.291 65.464 242.323 65.272 243.259 64.888C244.219 64.504 245.059 63.952 245.779 63.232C246.499 62.512 247.051 61.66 247.435 60.676C247.843 59.692 248.047 58.6 248.047 57.4C248.047 56.2 247.843 55.108 247.435 54.124C247.051 53.14 246.499 52.288 245.779 51.568C245.083 50.848 244.255 50.296 243.295 49.912C242.335 49.528 241.291 49.336 240.163 49.336C239.035 49.336 237.991 49.528 237.031 49.912C236.095 50.296 235.267 50.848 234.547 51.568C233.827 52.288 233.263 53.14 232.855 54.124C232.471 55.108 232.279 56.2 232.279 57.4C232.279 58.576 232.471 59.668 232.855 60.676C233.263 61.66 233.815 62.512 234.511 63.232C235.231 63.952 236.071 64.504 237.031 64.888C237.991 65.272 239.035 65.464 240.163 65.464ZM258.334 70V44.8H263.158L278.026 62.944H275.686V44.8H281.446V70H276.658L261.754 51.856H264.094V70H258.334Z"/>
</mask>
<path d="M0.568078 70V44.8H6.40008V70H0.568078ZM12.3806 70V44.8H17.2046L32.0726 62.944H29.7326V44.8H35.4926V70H30.7046L15.8006 51.856H18.1406V70H12.3806ZM46.6748 70V49.552H38.6108V44.8H60.5708V49.552H52.5068V70H46.6748ZM69.0727 54.952H81.2047V59.488H69.0727V54.952ZM69.5047 65.32H83.2207V70H63.7087V44.8H82.7527V49.48H69.5047V65.32ZM87.861 70V44.8H98.769C101.025 44.8 102.969 45.172 104.601 45.916C106.233 46.636 107.493 47.68 108.381 49.048C109.269 50.416 109.713 52.048 109.713 53.944C109.713 55.816 109.269 57.436 108.381 58.804C107.493 60.148 106.233 61.18 104.601 61.9C102.969 62.62 101.025 62.98 98.769 62.98H91.101L93.693 60.424V70H87.861ZM103.881 70L97.581 60.856H103.809L110.181 70H103.881ZM93.693 61.072L91.101 58.336H98.445C100.245 58.336 101.589 57.952 102.477 57.184C103.365 56.392 103.809 55.312 103.809 53.944C103.809 52.552 103.365 51.472 102.477 50.704C101.589 49.936 100.245 49.552 98.445 49.552H91.101L93.693 46.78V61.072ZM121.894 70L111.022 44.8H117.322L126.826 67.12H123.118L132.766 44.8H138.562L127.654 70H121.894ZM146.03 54.952H158.162V59.488H146.03V54.952ZM146.462 65.32H160.178V70H140.666V44.8H159.71V49.48H146.462V65.32ZM164.818 70V44.8H169.642L184.51 62.944H182.17V44.8H187.93V70H183.142L168.238 51.856H170.578V70H164.818ZM199.112 70V49.552H191.048V44.8H213.008V49.552H204.944V70H199.112ZM216.146 70V44.8H221.978V70H216.146ZM240.199 70.432C238.207 70.432 236.359 70.108 234.655 69.46C232.975 68.812 231.511 67.9 230.263 66.724C229.039 65.548 228.079 64.168 227.383 62.584C226.711 61 226.375 59.272 226.375 57.4C226.375 55.528 226.711 53.8 227.383 52.216C228.079 50.632 229.051 49.252 230.299 48.076C231.547 46.9 233.011 45.988 234.691 45.34C236.371 44.692 238.195 44.368 240.163 44.368C242.155 44.368 243.979 44.692 245.635 45.34C247.315 45.988 248.767 46.9 249.991 48.076C251.239 49.252 252.211 50.632 252.907 52.216C253.603 53.776 253.951 55.504 253.951 57.4C253.951 59.272 253.603 61.012 252.907 62.62C252.211 64.204 251.239 65.584 249.991 66.76C248.767 67.912 247.315 68.812 245.635 69.46C243.979 70.108 242.167 70.432 240.199 70.432ZM240.163 65.464C241.291 65.464 242.323 65.272 243.259 64.888C244.219 64.504 245.059 63.952 245.779 63.232C246.499 62.512 247.051 61.66 247.435 60.676C247.843 59.692 248.047 58.6 248.047 57.4C248.047 56.2 247.843 55.108 247.435 54.124C247.051 53.14 246.499 52.288 245.779 51.568C245.083 50.848 244.255 50.296 243.295 49.912C242.335 49.528 241.291 49.336 240.163 49.336C239.035 49.336 237.991 49.528 237.031 49.912C236.095 50.296 235.267 50.848 234.547 51.568C233.827 52.288 233.263 53.14 232.855 54.124C232.471 55.108 232.279 56.2 232.279 57.4C232.279 58.576 232.471 59.668 232.855 60.676C233.263 61.66 233.815 62.512 234.511 63.232C235.231 63.952 236.071 64.504 237.031 64.888C237.991 65.272 239.035 65.464 240.163 65.464ZM258.334 70V44.8H263.158L278.026 62.944H275.686V44.8H281.446V70H276.658L261.754 51.856H264.094V70H258.334Z" fill="white"/>
<path d="M80.1421 25.496L79.7777 26.4272L79.7858 26.4304L79.794 26.4334L80.1421 25.496ZM75.7861 22.76L75.0933 23.4811L75.1003 23.4878L75.7861 22.76ZM72.9061 18.62L71.9855 19.0106L71.9906 19.0223L72.9061 18.62ZM72.9061 8.18L71.9905 7.77769L71.9856 7.78945L72.9061 8.18ZM75.8221 4.04L76.5079 4.76779V4.76779L75.8221 4.04ZM80.2141 1.34L80.5624 2.2775L80.574 2.273L80.2141 1.34ZM91.7701 1.484L91.3838 2.40635L91.3882 2.40816L91.7701 1.484ZM96.3061 4.724L96.9844 5.4588L97.6956 4.8023L97.0627 4.07005L96.3061 4.724ZM92.5621 8.18L91.8371 8.86875L92.5161 9.58342L93.2404 8.9148L92.5621 8.18ZM89.5741 6.056L89.168 6.96981L89.1766 6.97361L89.1852 6.97725L89.5741 6.056ZM80.0701 7.568L79.3747 6.8494L79.3688 6.8551L79.363 6.86089L80.0701 7.568ZM78.3781 10.124L77.4544 9.74098L77.4504 9.75068L77.4466 9.76046L78.3781 10.124ZM78.3781 16.64L77.4466 17.0035L77.4504 17.0133L77.4544 17.023L78.3781 16.64ZM80.0701 19.232L79.3515 19.9274L79.3629 19.9392L79.3747 19.9506L80.0701 19.232ZM82.6621 20.888L82.2986 21.8196L82.3061 21.8225L82.6621 20.888ZM89.3221 20.924L89.6384 21.8728L89.6507 21.8685L89.3221 20.924ZM92.5261 19.016L93.3122 18.3979L92.6662 17.5763L91.8739 18.258L92.5261 19.016ZM95.8381 23.228L96.4404 24.0263L97.2549 23.4119L96.6242 22.6099L95.8381 23.228ZM91.0501 25.604L90.7605 24.6469L90.757 24.6479L91.0501 25.604ZM90.5101 22.472H89.5101V23.3401L90.3697 23.4621L90.5101 22.472ZM90.5101 13.004V12.004H89.5101V13.004H90.5101ZM95.8381 13.004H96.8381V12.004H95.8381V13.004ZM95.8381 23.228L95.6977 24.2181L96.8381 24.3799V23.228H95.8381ZM85.6501 25.432C83.7638 25.432 82.0472 25.1368 80.4903 24.5586L79.794 26.4334C81.5971 27.1032 83.5525 27.432 85.6501 27.432V25.432ZM80.5065 24.5648C78.9652 23.9616 77.6234 23.1172 76.4719 22.0322L75.1003 23.4878C76.4449 24.7548 78.0071 25.7344 79.7777 26.4272L80.5065 24.5648ZM76.479 22.0389C75.3512 20.9554 74.466 19.6843 73.8217 18.2177L71.9906 19.0223C72.7382 20.7237 73.7731 22.2126 75.0933 23.4811L76.479 22.0389ZM73.8267 18.2295C73.2122 16.781 72.8981 15.1755 72.8981 13.4H70.8981C70.8981 15.4165 71.256 17.291 71.9856 19.0105L73.8267 18.2295ZM72.8981 13.4C72.8981 11.6245 73.2122 10.019 73.8267 8.57055L71.9856 7.78945C71.256 9.50904 70.8981 11.3835 70.8981 13.4H72.8981ZM73.8217 8.58227C74.4642 7.11995 75.3585 5.85094 76.5079 4.76779L75.1363 3.31221C73.7898 4.58105 72.7401 6.07204 71.9906 7.77773L73.8217 8.58227ZM76.5079 4.76779C77.6542 3.68768 79.002 2.85698 80.5623 2.27742L79.866 0.402573C78.0663 1.07102 76.4861 2.04032 75.1363 3.31221L76.5079 4.76779ZM80.574 2.273C82.1263 1.67427 83.8505 1.368 85.7581 1.368V-0.632C83.6337 -0.632 81.662 -0.29027 79.8543 0.406996L80.574 2.273ZM85.7581 1.368C87.8784 1.368 89.748 1.7211 91.3838 2.40634L92.1565 0.56166C90.2403 -0.241098 88.1019 -0.632 85.7581 -0.632V1.368ZM91.3882 2.40816C93.05 3.09505 94.4319 4.08486 95.5496 5.37795L97.0627 4.07005C95.7324 2.53114 94.0903 1.36095 92.1521 0.559832L91.3882 2.40816ZM95.6279 3.9892L91.8839 7.4452L93.2404 8.9148L96.9844 5.4588L95.6279 3.9892ZM93.2871 7.49125C92.2926 6.44436 91.1854 5.65081 89.9631 5.13475L89.1852 6.97725C90.1229 7.37318 91.0077 7.99564 91.8371 8.86875L93.2871 7.49125ZM89.9803 5.14219C88.7629 4.60113 87.4472 4.336 86.0461 4.336V6.336C87.189 6.336 88.2254 6.55087 89.168 6.96981L89.9803 5.14219ZM86.0461 4.336C84.7167 4.336 83.4781 4.54477 82.3421 4.97751L83.0541 6.84649C83.9342 6.51123 84.9276 6.336 86.0461 6.336V4.336ZM82.3421 4.97751C81.213 5.40768 80.2201 6.03124 79.3747 6.8494L80.7656 8.2866C81.4081 7.66475 82.1673 7.18432 83.0541 6.84649L82.3421 4.97751ZM79.363 6.86089C78.546 7.67793 77.9103 8.64148 77.4544 9.74098L79.3019 10.507C79.662 9.63852 80.1543 8.89807 80.7772 8.27511L79.363 6.86089ZM77.4466 9.76046C77.0116 10.875 76.8021 12.0924 76.8021 13.4H78.8021C78.8021 12.3076 78.9767 11.341 79.3097 10.4875L77.4466 9.76046ZM76.8021 13.4C76.8021 14.6863 77.0125 15.8913 77.4466 17.0035L79.3097 16.2765C78.9758 15.4207 78.8021 14.4657 78.8021 13.4H76.8021ZM77.4544 17.023C77.9091 18.1197 78.5416 19.0905 79.3515 19.9274L80.7887 18.5366C80.1587 17.8855 79.6632 17.1283 79.3019 16.257L77.4544 17.023ZM79.3747 19.9506C80.2161 20.7648 81.1935 21.3883 82.2986 21.8196L83.0257 19.9564C82.1628 19.6197 81.4122 19.1392 80.7656 18.5134L79.3747 19.9506ZM82.3061 21.8225C83.4399 22.2544 84.6661 22.464 85.9741 22.464V20.464C84.8822 20.464 83.9004 20.2896 83.0181 19.9535L82.3061 21.8225ZM85.9741 22.464C87.2323 22.464 88.4552 22.2671 89.6384 21.8727L89.0059 19.9753C88.0291 20.3009 87.02 20.464 85.9741 20.464V22.464ZM89.6507 21.8685C90.8912 21.437 92.0666 20.7307 93.1784 19.774L91.8739 18.258C90.9217 19.0773 89.9611 19.643 88.9936 19.9795L89.6507 21.8685ZM91.7401 19.6341L95.0521 23.8461L96.6242 22.6099L93.3122 18.3979L91.7401 19.6341ZM95.2359 22.4297C93.9719 23.3832 92.4843 24.1252 90.7605 24.6469L91.3398 26.5611C93.264 25.9788 94.9684 25.1368 96.4404 24.0263L95.2359 22.4297ZM90.757 24.6479C89.0476 25.1722 87.3463 25.432 85.6501 25.432V27.432C87.554 27.432 89.4527 27.1398 91.3433 26.5601L90.757 24.6479ZM91.5101 22.472V13.004H89.5101V22.472H91.5101ZM90.5101 14.004H95.8381V12.004H90.5101V14.004ZM94.8381 13.004V23.228H96.8381V13.004H94.8381ZM95.9786 22.2379L90.6506 21.4819L90.3697 23.4621L95.6977 24.2181L95.9786 22.2379ZM106.62 10.952V9.952H105.62V10.952H106.62ZM118.752 10.952H119.752V9.952H118.752V10.952ZM118.752 15.488V16.488H119.752V15.488H118.752ZM106.62 15.488H105.62V16.488H106.62V15.488ZM107.052 21.32H106.052V22.32H107.052V21.32ZM120.768 21.32H121.768V20.32H120.768V21.32ZM120.768 26V27H121.768V26H120.768ZM101.256 26H100.256V27H101.256V26ZM101.256 0.799998V-0.200002H100.256V0.799998H101.256ZM120.3 0.799998H121.3V-0.200002H120.3V0.799998ZM120.3 5.48V6.48H121.3V5.48H120.3ZM107.052 5.48V4.48H106.052V5.48H107.052ZM106.62 11.952H118.752V9.952H106.62V11.952ZM117.752 10.952V15.488H119.752V10.952H117.752ZM118.752 14.488H106.62V16.488H118.752V14.488ZM107.62 15.488V10.952H105.62V15.488H107.62ZM107.052 22.32H120.768V20.32H107.052V22.32ZM119.768 21.32V26H121.768V21.32H119.768ZM120.768 25H101.256V27H120.768V25ZM102.256 26V0.799998H100.256V26H102.256ZM101.256 1.8H120.3V-0.200002H101.256V1.8ZM119.3 0.799998V5.48H121.3V0.799998H119.3ZM120.3 4.48H107.052V6.48H120.3V4.48ZM106.052 5.48V21.32H108.052V5.48H106.052ZM130.628 26H129.628V27H130.628V26ZM130.628 5.552H131.628V4.552H130.628V5.552ZM122.564 5.552H121.564V6.552H122.564V5.552ZM122.564 0.799998V-0.200002H121.564V0.799998H122.564ZM144.524 0.799998H145.524V-0.200002H144.524V0.799998ZM144.524 5.552V6.552H145.524V5.552H144.524ZM136.46 5.552V4.552H135.46V5.552H136.46ZM136.46 26V27H137.46V26H136.46ZM131.628 26V5.552H129.628V26H131.628ZM130.628 4.552H122.564V6.552H130.628V4.552ZM123.564 5.552V0.799998H121.564V5.552H123.564ZM122.564 1.8H144.524V-0.200002H122.564V1.8ZM143.524 0.799998V5.552H145.524V0.799998H143.524ZM144.524 4.552H136.46V6.552H144.524V4.552ZM135.46 5.552V26H137.46V5.552H135.46ZM136.46 25H130.628V27H136.46V25ZM154.545 26L153.632 25.5929L153.005 27H154.545V26ZM165.777 0.799998V-0.200002H165.128L164.864 0.392892L165.777 0.799998ZM171.537 0.799998L172.45 0.391804L172.185 -0.200002H171.537V0.799998ZM182.805 26V27H184.348L183.718 25.5918L182.805 26ZM176.685 26L175.761 26.3827L176.017 27H176.685V26ZM167.469 3.752V2.752H165.973L166.545 4.1347L167.469 3.752ZM169.773 3.752L170.696 4.13598L171.272 2.752H169.773V3.752ZM160.521 26V27H161.188L161.444 26.384L160.521 26ZM160.161 20.6L159.217 20.27L158.752 21.6H160.161V20.6ZM161.709 16.172V15.172H160.999L160.765 15.842L161.709 16.172ZM174.669 16.172L175.611 15.8352L175.373 15.172H174.669V16.172ZM176.253 20.6V21.6H177.673L177.195 20.2632L176.253 20.6ZM155.459 26.4071L166.691 1.2071L164.864 0.392892L153.632 25.5929L155.459 26.4071ZM165.777 1.8H171.537V-0.200002H165.777V1.8ZM170.624 1.20819L181.892 26.4082L183.718 25.5918L172.45 0.391804L170.624 1.20819ZM182.805 25H176.685V27H182.805V25ZM177.609 25.6173L168.393 3.3693L166.545 4.1347L175.761 26.3827L177.609 25.6173ZM167.469 4.752H169.773V2.752H167.469V4.752ZM168.85 3.36802L159.598 25.616L161.444 26.384L170.696 4.13598L168.85 3.36802ZM160.521 25H154.545V27H160.521V25ZM161.105 20.93L162.653 16.502L160.765 15.842L159.217 20.27L161.105 20.93ZM161.709 17.172H174.669V15.172H161.709V17.172ZM173.728 16.5088L175.312 20.9368L177.195 20.2632L175.611 15.8352L173.728 16.5088ZM176.253 19.6H160.161V21.6H176.253V19.6ZM185.42 26H184.42V27H185.42V26ZM185.42 0.799998V-0.200002H184.42V0.799998H185.42ZM190.244 0.799998L191.017 0.166176L190.717 -0.200002H190.244V0.799998ZM205.112 18.944V19.944H207.224L205.885 18.3102L205.112 18.944ZM202.772 18.944H201.772V19.944H202.772V18.944ZM202.772 0.799998V-0.200002H201.772V0.799998H202.772ZM208.532 0.799998H209.532V-0.200002H208.532V0.799998ZM208.532 26V27H209.532V26H208.532ZM203.744 26L202.971 26.6347L203.271 27H203.744V26ZM188.84 7.856V6.856H186.724L188.067 8.49074L188.84 7.856ZM191.18 7.856H192.18V6.856H191.18V7.856ZM191.18 26V27H192.18V26H191.18ZM186.42 26V0.799998H184.42V26H186.42ZM185.42 1.8H190.244V-0.200002H185.42V1.8ZM189.47 1.43382L204.338 19.5778L205.885 18.3102L191.017 0.166176L189.47 1.43382ZM205.112 17.944H202.772V19.944H205.112V17.944ZM203.772 18.944V0.799998H201.772V18.944H203.772ZM202.772 1.8H208.532V-0.200002H202.772V1.8ZM207.532 0.799998V26H209.532V0.799998H207.532ZM208.532 25H203.744V27H208.532V25ZM204.516 25.3653L189.612 7.22126L188.067 8.49074L202.971 26.6347L204.516 25.3653ZM188.84 8.856H191.18V6.856H188.84V8.856ZM190.18 7.856V26H192.18V7.856H190.18ZM191.18 25H185.42V27H191.18V25ZM0.568079 70H-0.431921V71H0.568079V70ZM0.568079 44.8V43.8H-0.431921V44.8H0.568079ZM6.40008 44.8H7.40008V43.8H6.40008V44.8ZM6.40008 70V71H7.40008V70H6.40008ZM1.56808 70V44.8H-0.431921V70H1.56808ZM0.568079 45.8H6.40008V43.8H0.568079V45.8ZM5.40008 44.8V70H7.40008V44.8H5.40008ZM6.40008 69H0.568079V71H6.40008V69ZM12.3806 70H11.3806V71H12.3806V70ZM12.3806 44.8V43.8H11.3806V44.8H12.3806ZM17.2046 44.8L17.9781 44.1662L17.678 43.8H17.2046V44.8ZM32.0726 62.944V63.944H34.1849L32.8461 62.3102L32.0726 62.944ZM29.7326 62.944H28.7326V63.944H29.7326V62.944ZM29.7326 44.8V43.8H28.7326V44.8H29.7326ZM35.4926 44.8H36.4926V43.8H35.4926V44.8ZM35.4926 70V71H36.4926V70H35.4926ZM30.7046 70L29.9319 70.6347L30.2319 71H30.7046V70ZM15.8006 51.856V50.856H13.685L15.0279 52.4907L15.8006 51.856ZM18.1406 51.856H19.1406V50.856H18.1406V51.856ZM18.1406 70V71H19.1406V70H18.1406ZM13.3806 70V44.8H11.3806V70H13.3806ZM12.3806 45.8H17.2046V43.8H12.3806V45.8ZM16.4311 45.4338L31.2991 63.5778L32.8461 62.3102L17.9781 44.1662L16.4311 45.4338ZM32.0726 61.944H29.7326V63.944H32.0726V61.944ZM30.7326 62.944V44.8H28.7326V62.944H30.7326ZM29.7326 45.8H35.4926V43.8H29.7326V45.8ZM34.4926 44.8V70H36.4926V44.8H34.4926ZM35.4926 69H30.7046V71H35.4926V69ZM31.4773 69.3653L16.5733 51.2213L15.0279 52.4907L29.9319 70.6347L31.4773 69.3653ZM15.8006 52.856H18.1406V50.856H15.8006V52.856ZM17.1406 51.856V70H19.1406V51.856H17.1406ZM18.1406 69H12.3806V71H18.1406V69ZM46.6748 70H45.6748V71H46.6748V70ZM46.6748 49.552H47.6748V48.552H46.6748V49.552ZM38.6108 49.552H37.6108V50.552H38.6108V49.552ZM38.6108 44.8V43.8H37.6108V44.8H38.6108ZM60.5708 44.8H61.5708V43.8H60.5708V44.8ZM60.5708 49.552V50.552H61.5708V49.552H60.5708ZM52.5068 49.552V48.552H51.5068V49.552H52.5068ZM52.5068 70V71H53.5068V70H52.5068ZM47.6748 70V49.552H45.6748V70H47.6748ZM46.6748 48.552H38.6108V50.552H46.6748V48.552ZM39.6108 49.552V44.8H37.6108V49.552H39.6108ZM38.6108 45.8H60.5708V43.8H38.6108V45.8ZM59.5708 44.8V49.552H61.5708V44.8H59.5708ZM60.5708 48.552H52.5068V50.552H60.5708V48.552ZM51.5068 49.552V70H53.5068V49.552H51.5068ZM52.5068 69H46.6748V71H52.5068V69ZM69.0727 54.952V53.952H68.0727V54.952H69.0727ZM81.2047 54.952H82.2047V53.952H81.2047V54.952ZM81.2047 59.488V60.488H82.2047V59.488H81.2047ZM69.0727 59.488H68.0727V60.488H69.0727V59.488ZM69.5047 65.32H68.5047V66.32H69.5047V65.32ZM83.2207 65.32H84.2207V64.32H83.2207V65.32ZM83.2207 70V71H84.2207V70H83.2207ZM63.7087 70H62.7087V71H63.7087V70ZM63.7087 44.8V43.8H62.7087V44.8H63.7087ZM82.7527 44.8H83.7527V43.8H82.7527V44.8ZM82.7527 49.48V50.48H83.7527V49.48H82.7527ZM69.5047 49.48V48.48H68.5047V49.48H69.5047ZM69.0727 55.952H81.2047V53.952H69.0727V55.952ZM80.2047 54.952V59.488H82.2047V54.952H80.2047ZM81.2047 58.488H69.0727V60.488H81.2047V58.488ZM70.0727 59.488V54.952H68.0727V59.488H70.0727ZM69.5047 66.32H83.2207V64.32H69.5047V66.32ZM82.2207 65.32V70H84.2207V65.32H82.2207ZM83.2207 69H63.7087V71H83.2207V69ZM64.7087 70V44.8H62.7087V70H64.7087ZM63.7087 45.8H82.7527V43.8H63.7087V45.8ZM81.7527 44.8V49.48H83.7527V44.8H81.7527ZM82.7527 48.48H69.5047V50.48H82.7527V48.48ZM68.5047 49.48V65.32H70.5047V49.48H68.5047ZM87.861 70H86.861V71H87.861V70ZM87.861 44.8V43.8H86.861V44.8H87.861ZM104.601 45.916L104.186 46.826L104.197 46.8309L104.601 45.916ZM108.381 49.048L107.542 49.5925V49.5925L108.381 49.048ZM108.381 58.804L109.215 59.3553L109.22 59.3485L108.381 58.804ZM104.601 61.9L105.005 62.8149L104.601 61.9ZM91.101 62.98L90.3989 62.268L88.6628 63.98H91.101V62.98ZM93.693 60.424H94.693V58.0335L92.9909 59.712L93.693 60.424ZM93.693 70V71H94.693V70H93.693ZM103.881 70L103.058 70.5674L103.356 71H103.881V70ZM97.581 60.856V59.856H95.6777L96.7576 61.4234L97.581 60.856ZM103.809 60.856L104.629 60.2843L104.331 59.856H103.809V60.856ZM110.181 70V71H112.097L111.001 69.4283L110.181 70ZM93.693 61.072L92.9671 61.7597L94.693 63.5816V61.072H93.693ZM91.101 58.336V57.336H88.7762L90.3751 59.0237L91.101 58.336ZM102.477 57.184L103.131 57.9404L103.137 57.9354L103.143 57.9303L102.477 57.184ZM91.101 49.552L90.3706 48.869L88.7969 50.552H91.101V49.552ZM93.693 46.78H94.693V44.2464L92.9626 46.097L93.693 46.78ZM88.861 70V44.8H86.861V70H88.861ZM87.861 45.8H98.7691V43.8H87.861V45.8ZM98.7691 45.8C100.918 45.8 102.713 46.1545 104.186 46.8259L105.016 45.0061C103.225 44.1895 101.132 43.8 98.7691 43.8V45.8ZM104.197 46.8309C105.669 47.4801 106.77 48.4029 107.542 49.5925L109.22 48.5035C108.216 46.9571 106.797 45.7919 105.005 45.0011L104.197 46.8309ZM107.542 49.5925C108.309 50.7734 108.713 52.2092 108.713 53.944H110.713C110.713 51.8868 110.229 50.0586 109.22 48.5035L107.542 49.5925ZM108.713 53.944C108.713 55.652 108.31 57.0766 107.542 58.2595L109.22 59.3485C110.228 57.7954 110.713 55.9799 110.713 53.944H108.713ZM107.547 58.2527C106.776 59.4198 105.673 60.3339 104.197 60.9851L105.005 62.8149C106.793 62.0261 108.21 60.8762 109.215 59.3553L107.547 58.2527ZM104.197 60.9851C102.721 61.6362 100.922 61.98 98.7691 61.98V63.98C101.129 63.98 103.217 63.6038 105.005 62.8149L104.197 60.9851ZM98.7691 61.98H91.101V63.98H98.7691V61.98ZM91.8032 63.692L94.3952 61.136L92.9909 59.712L90.3989 62.268L91.8032 63.692ZM92.693 60.424V70H94.693V60.424H92.693ZM93.693 69H87.861V71H93.693V69ZM104.705 69.4326L98.4045 60.2886L96.7576 61.4234L103.058 70.5674L104.705 69.4326ZM97.581 61.856H103.809V59.856H97.581V61.856ZM102.989 61.4277L109.361 70.5717L111.001 69.4283L104.629 60.2843L102.989 61.4277ZM110.181 69H103.881V71H110.181V69ZM94.419 60.3843L91.827 57.6483L90.3751 59.0237L92.9671 61.7597L94.419 60.3843ZM91.101 59.336H98.445V57.336H91.101V59.336ZM98.445 59.336C100.362 59.336 101.986 58.9306 103.131 57.9404L101.823 56.4276C101.192 56.9734 100.128 57.336 98.445 57.336V59.336ZM103.143 57.9303C104.276 56.9193 104.809 55.5499 104.809 53.944H102.809C102.809 55.0741 102.454 55.8647 101.811 56.4377L103.143 57.9303ZM104.809 53.944C104.809 52.3209 104.28 50.9412 103.131 49.9476L101.823 51.4604C102.45 52.0028 102.809 52.7831 102.809 53.944H104.809ZM103.131 49.9476C101.986 48.9574 100.362 48.552 98.445 48.552V50.552C100.128 50.552 101.192 50.9146 101.823 51.4604L103.131 49.9476ZM98.445 48.552H91.101V50.552H98.445V48.552ZM91.8315 50.235L94.4235 47.463L92.9626 46.097L90.3706 48.869L91.8315 50.235ZM92.693 46.78V61.072H94.693V46.78H92.693ZM121.894 70L120.976 70.3961L121.236 71H121.894V70ZM111.022 44.8V43.8H109.501L110.104 45.1961L111.022 44.8ZM117.322 44.8L118.242 44.4082L117.983 43.8H117.322V44.8ZM126.826 67.12V68.12H128.338L127.746 66.7282L126.826 67.12ZM123.118 67.12L122.2 66.7232L121.596 68.12H123.118V67.12ZM132.766 44.8V43.8H132.109L131.848 44.4032L132.766 44.8ZM138.562 44.8L139.479 45.1972L140.084 43.8H138.562V44.8ZM127.654 70V71H128.311L128.571 70.3972L127.654 70ZM122.812 69.6039L111.94 44.4039L110.104 45.1961L120.976 70.3961L122.812 69.6039ZM111.022 45.8H117.322V43.8H111.022V45.8ZM116.402 45.1918L125.906 67.5118L127.746 66.7282L118.242 44.4082L116.402 45.1918ZM126.826 66.12H123.118V68.12H126.826V66.12ZM124.036 67.5168L133.684 45.1968L131.848 44.4032L122.2 66.7232L124.036 67.5168ZM132.766 45.8H138.562V43.8H132.766V45.8ZM137.644 44.4028L126.736 69.6028L128.571 70.3972L139.479 45.1972L137.644 44.4028ZM127.654 69H121.894V71H127.654V69ZM146.03 54.952V53.952H145.03V54.952H146.03ZM158.162 54.952H159.162V53.952H158.162V54.952ZM158.162 59.488V60.488H159.162V59.488H158.162ZM146.03 59.488H145.03V60.488H146.03V59.488ZM146.462 65.32H145.462V66.32H146.462V65.32ZM160.178 65.32H161.178V64.32H160.178V65.32ZM160.178 70V71H161.178V70H160.178ZM140.666 70H139.666V71H140.666V70ZM140.666 44.8V43.8H139.666V44.8H140.666ZM159.71 44.8H160.71V43.8H159.71V44.8ZM159.71 49.48V50.48H160.71V49.48H159.71ZM146.462 49.48V48.48H145.462V49.48H146.462ZM146.03 55.952H158.162V53.952H146.03V55.952ZM157.162 54.952V59.488H159.162V54.952H157.162ZM158.162 58.488H146.03V60.488H158.162V58.488ZM147.03 59.488V54.952H145.03V59.488H147.03ZM146.462 66.32H160.178V64.32H146.462V66.32ZM159.178 65.32V70H161.178V65.32H159.178ZM160.178 69H140.666V71H160.178V69ZM141.666 70V44.8H139.666V70H141.666ZM140.666 45.8H159.71V43.8H140.666V45.8ZM158.71 44.8V49.48H160.71V44.8H158.71ZM159.71 48.48H146.462V50.48H159.71V48.48ZM145.462 49.48V65.32H147.462V49.48H145.462ZM164.818 70H163.818V71H164.818V70ZM164.818 44.8V43.8H163.818V44.8H164.818ZM169.642 44.8L170.416 44.1662L170.115 43.8H169.642V44.8ZM184.51 62.944V63.944H186.622L185.284 62.3102L184.51 62.944ZM182.17 62.944H181.17V63.944H182.17V62.944ZM182.17 44.8V43.8H181.17V44.8H182.17ZM187.93 44.8H188.93V43.8H187.93V44.8ZM187.93 70V71H188.93V70H187.93ZM183.142 70L182.369 70.6347L182.669 71H183.142V70ZM168.238 51.856V50.856H166.123L167.465 52.4907L168.238 51.856ZM170.578 51.856H171.578V50.856H170.578V51.856ZM170.578 70V71H171.578V70H170.578ZM165.818 70V44.8H163.818V70H165.818ZM164.818 45.8H169.642V43.8H164.818V45.8ZM168.869 45.4338L183.737 63.5778L185.284 62.3102L170.416 44.1662L168.869 45.4338ZM184.51 61.944H182.17V63.944H184.51V61.944ZM183.17 62.944V44.8H181.17V62.944H183.17ZM182.17 45.8H187.93V43.8H182.17V45.8ZM186.93 44.8V70H188.93V44.8H186.93ZM187.93 69H183.142V71H187.93V69ZM183.915 69.3653L169.011 51.2213L167.465 52.4907L182.369 70.6347L183.915 69.3653ZM168.238 52.856H170.578V50.856H168.238V52.856ZM169.578 51.856V70H171.578V51.856H169.578ZM170.578 69H164.818V71H170.578V69ZM199.112 70H198.112V71H199.112V70ZM199.112 49.552H200.112V48.552H199.112V49.552ZM191.048 49.552H190.048V50.552H191.048V49.552ZM191.048 44.8V43.8H190.048V44.8H191.048ZM213.008 44.8H214.008V43.8H213.008V44.8ZM213.008 49.552V50.552H214.008V49.552H213.008ZM204.944 49.552V48.552H203.944V49.552H204.944ZM204.944 70V71H205.944V70H204.944ZM200.112 70V49.552H198.112V70H200.112ZM199.112 48.552H191.048V50.552H199.112V48.552ZM192.048 49.552V44.8H190.048V49.552H192.048ZM191.048 45.8H213.008V43.8H191.048V45.8ZM212.008 44.8V49.552H214.008V44.8H212.008ZM213.008 48.552H204.944V50.552H213.008V48.552ZM203.944 49.552V70H205.944V49.552H203.944ZM204.944 69H199.112V71H204.944V69ZM216.146 70H215.146V71H216.146V70ZM216.146 44.8V43.8H215.146V44.8H216.146ZM221.978 44.8H222.978V43.8H221.978V44.8ZM221.978 70V71H222.978V70H221.978ZM217.146 70V44.8H215.146V70H217.146ZM216.146 45.8H221.978V43.8H216.146V45.8ZM220.978 44.8V70H222.978V44.8H220.978ZM221.978 69H216.146V71H221.978V69ZM234.655 69.46L234.295 70.393L234.299 70.3947L234.655 69.46ZM230.263 66.724L229.57 67.4451L229.577 67.4518L230.263 66.724ZM227.383 62.584L226.462 62.9746L226.467 62.9863L227.383 62.584ZM227.383 52.216L226.467 51.8137L226.462 51.8255L227.383 52.216ZM234.691 45.34L234.331 44.407L234.691 45.34ZM245.635 45.34L245.27 46.2713L245.275 46.273L245.635 45.34ZM249.991 48.076L249.298 48.7971L249.305 48.8038L249.991 48.076ZM252.907 52.216L251.991 52.6183L251.993 52.6234L252.907 52.216ZM252.907 62.62L253.822 63.0223L253.824 63.0172L252.907 62.62ZM249.991 66.76L250.676 67.4882L250.677 67.4878L249.991 66.76ZM245.635 69.46L245.275 68.527L245.27 68.5288L245.635 69.46ZM243.259 64.888L242.887 63.9595L242.879 63.9628L243.259 64.888ZM245.779 63.232L245.072 62.5249L245.779 63.232ZM247.435 60.676L246.511 60.293L246.507 60.3027L246.503 60.3125L247.435 60.676ZM247.435 54.124L246.503 54.4875L246.507 54.4973L246.511 54.507L247.435 54.124ZM245.779 51.568L245.06 52.263L245.066 52.2691L245.072 52.2751L245.779 51.568ZM243.295 49.912L242.923 50.8405L243.295 49.912ZM237.031 49.912L236.659 48.9835L236.651 48.9868L237.031 49.912ZM234.547 51.568L235.254 52.2751L234.547 51.568ZM232.855 54.124L231.931 53.741L231.927 53.7507L231.923 53.7605L232.855 54.124ZM232.855 60.676L231.92 61.032L231.925 61.0456L231.931 61.059L232.855 60.676ZM234.511 63.232L233.792 63.927L233.798 63.9331L233.804 63.9391L234.511 63.232ZM237.031 64.888L236.659 65.8165L237.031 64.888ZM240.199 69.432C238.317 69.432 236.591 69.1263 235.01 68.5253L234.299 70.3947C236.127 71.0897 238.096 71.432 240.199 71.432V69.432ZM235.015 68.527C233.449 67.9233 232.098 67.0789 230.949 65.9962L229.577 67.4518C230.924 68.7211 232.5 69.7007 234.295 70.393L235.015 68.527ZM230.956 66.0029C229.828 64.9193 228.943 63.6483 228.298 62.1817L226.467 62.9863C227.215 64.6877 228.25 66.1767 229.57 67.4451L230.956 66.0029ZM228.303 62.1935C227.688 60.7435 227.375 59.1497 227.375 57.4H225.375C225.375 59.3943 225.733 61.2565 226.462 62.9745L228.303 62.1935ZM227.375 57.4C227.375 55.6503 227.688 54.0565 228.303 52.6065L226.462 51.8255C225.733 53.5435 225.375 55.4057 225.375 57.4H227.375ZM228.298 52.6183C228.941 51.156 229.835 49.8869 230.984 48.8038L229.613 47.3482C228.266 48.6171 227.217 50.108 226.467 51.8137L228.298 52.6183ZM230.984 48.8038C232.133 47.7211 233.485 46.8767 235.051 46.273L234.331 44.407C232.536 45.0993 230.96 46.0789 229.613 47.3482L230.984 48.8038ZM235.051 46.273C236.606 45.6732 238.306 45.368 240.163 45.368V43.368C238.083 43.368 236.136 43.7108 234.331 44.407L235.051 46.273ZM240.163 45.368C242.045 45.368 243.744 45.6738 245.27 46.2712L245.999 44.4088C244.214 43.7102 242.264 43.368 240.163 43.368V45.368ZM245.275 46.273C246.839 46.8761 248.175 47.7187 249.298 48.7971L250.684 47.3549C249.358 46.0813 247.791 45.0999 245.995 44.407L245.275 46.273ZM249.305 48.8038C250.454 49.8869 251.349 51.156 251.991 52.6183L253.822 51.8137C253.073 50.108 252.023 48.6171 250.677 47.3482L249.305 48.8038ZM251.993 52.6234C252.626 54.0418 252.951 55.6289 252.951 57.4H254.951C254.951 55.3791 254.579 53.5102 253.82 51.8086L251.993 52.6234ZM252.951 57.4C252.951 59.1448 252.627 60.7486 251.989 62.2228L253.824 63.0172C254.578 61.2754 254.951 59.3992 254.951 57.4H252.951ZM251.991 62.2177C251.349 63.68 250.454 64.9491 249.305 66.0322L250.677 67.4878C252.023 66.2189 253.073 64.728 253.822 63.0223L251.991 62.2177ZM249.305 66.0318C248.182 67.089 246.843 67.9222 245.275 68.527L245.995 70.393C247.787 69.7018 249.351 68.7351 250.676 67.4882L249.305 66.0318ZM245.27 68.5288C243.742 69.1267 242.055 69.432 240.199 69.432V71.432C242.278 71.432 244.215 71.0893 245.999 70.3912L245.27 68.5288ZM240.163 66.464C241.406 66.464 242.569 66.252 243.638 65.8132L242.879 63.9628C242.077 64.292 241.175 64.464 240.163 64.464V66.464ZM243.63 65.8165C244.714 65.383 245.669 64.7564 246.486 63.9391L245.072 62.5249C244.449 63.1476 243.724 63.625 242.887 63.9595L243.63 65.8165ZM246.486 63.9391C247.307 63.1177 247.934 62.1474 248.366 61.0395L246.503 60.3125C246.167 61.1726 245.69 61.9063 245.072 62.5249L246.486 63.9391ZM248.358 61.059C248.823 59.9392 249.047 58.7149 249.047 57.4H247.047C247.047 58.4851 246.863 59.4448 246.511 60.293L248.358 61.059ZM249.047 57.4C249.047 56.0851 248.823 54.8608 248.358 53.741L246.511 54.507C246.863 55.3552 247.047 56.3149 247.047 57.4H249.047ZM248.366 53.7605C247.934 52.6526 247.307 51.6823 246.486 50.8609L245.072 52.2751C245.69 52.8937 246.167 53.6274 246.503 54.4875L248.366 53.7605ZM246.498 50.873C245.7 50.0482 244.753 49.4182 243.666 48.9835L242.923 50.8405C243.757 51.1738 244.465 51.6478 245.06 52.263L246.498 50.873ZM243.666 48.9835C242.578 48.5481 241.406 48.336 240.163 48.336V50.336C241.175 50.336 242.092 50.5079 242.923 50.8405L243.666 48.9835ZM240.163 48.336C238.919 48.336 237.748 48.5481 236.659 48.9835L237.402 50.8405C238.234 50.5079 239.15 50.336 240.163 50.336V48.336ZM236.651 48.9868C235.592 49.4214 234.653 50.0478 233.84 50.8609L235.254 52.2751C235.881 51.6481 236.598 51.1706 237.41 50.8372L236.651 48.9868ZM233.84 50.8609C233.023 51.6779 232.387 52.6415 231.931 53.741L233.778 54.507C234.139 53.6385 234.631 52.8981 235.254 52.2751L233.84 50.8609ZM231.923 53.7605C231.488 54.875 231.279 56.0924 231.279 57.4H233.279C233.279 56.3076 233.453 55.341 233.786 54.4875L231.923 53.7605ZM231.279 57.4C231.279 58.6867 231.489 59.9005 231.92 61.032L233.789 60.32C233.452 59.4355 233.279 58.4653 233.279 57.4H231.279ZM231.931 61.059C232.384 62.1515 233.003 63.1112 233.792 63.927L235.23 62.537C234.626 61.9128 234.141 61.1685 233.778 60.293L231.931 61.059ZM233.804 63.9391C234.621 64.7564 235.576 65.383 236.659 65.8165L237.402 63.9595C236.566 63.625 235.841 63.1476 235.218 62.5249L233.804 63.9391ZM236.659 65.8165C237.748 66.2519 238.919 66.464 240.163 66.464V64.464C239.15 64.464 238.234 64.2921 237.402 63.9595L236.659 65.8165ZM258.334 70H257.334V71H258.334V70ZM258.334 44.8V43.8H257.334V44.8H258.334ZM263.158 44.8L263.931 44.1662L263.631 43.8H263.158V44.8ZM278.026 62.944V63.944H280.138L278.799 62.3102L278.026 62.944ZM275.686 62.944H274.686V63.944H275.686V62.944ZM275.686 44.8V43.8H274.686V44.8H275.686ZM281.446 44.8H282.446V43.8H281.446V44.8ZM281.446 70V71H282.446V70H281.446ZM276.658 70L275.885 70.6347L276.185 71H276.658V70ZM261.754 51.856V50.856H259.638L260.981 52.4907L261.754 51.856ZM264.094 51.856H265.094V50.856H264.094V51.856ZM264.094 70V71H265.094V70H264.094ZM259.334 70V44.8H257.334V70H259.334ZM258.334 45.8H263.158V43.8H258.334V45.8ZM262.384 45.4338L277.252 63.5778L278.799 62.3102L263.931 44.1662L262.384 45.4338ZM278.026 61.944H275.686V63.944H278.026V61.944ZM276.686 62.944V44.8H274.686V62.944H276.686ZM275.686 45.8H281.446V43.8H275.686V45.8ZM280.446 44.8V70H282.446V44.8H280.446ZM281.446 69H276.658V71H281.446V69ZM277.43 69.3653L262.526 51.2213L260.981 52.4907L275.885 70.6347L277.43 69.3653ZM261.754 52.856H264.094V50.856H261.754V52.856ZM263.094 51.856V70H265.094V51.856H263.094ZM264.094 69H258.334V71H264.094V69Z" fill="white" mask="url(#path-1-outside-1_1_473)"/>
</svg>
