<svg width="500" height="119" viewBox="0 0 500 119" fill="none" xmlns="http://www.w3.org/2000/svg">
<mask id="path-1-outside-1_1_330" maskUnits="userSpaceOnUse" x="-1" y="-1" width="502" height="121" fill="black">
<rect fill="white" x="-1" y="-1" width="502" height="121"/>
<path d="M151.6 46.768C148.059 46.768 144.795 46.2133 141.808 45.104C138.864 43.952 136.283 42.3307 134.064 40.24C131.888 38.1493 130.182 35.696 128.944 32.88C127.75 30.064 127.152 26.9707 127.152 23.6C127.152 20.2293 127.75 17.136 128.944 14.32C130.182 11.504 131.91 9.05066 134.128 6.96C136.347 4.86933 138.95 3.26933 141.936 2.16C144.923 1.008 148.208 0.431999 151.792 0.431999C155.76 0.431999 159.323 1.09333 162.48 2.416C165.68 3.73866 168.368 5.65866 170.544 8.176L163.888 14.32C162.267 12.6133 160.496 11.3547 158.576 10.544C156.656 9.69067 154.566 9.264 152.304 9.264C150.128 9.264 148.144 9.60533 146.352 10.288C144.56 10.9707 143.003 11.952 141.68 13.232C140.4 14.512 139.398 16.0267 138.672 17.776C137.99 19.5253 137.648 21.4667 137.648 23.6C137.648 25.6907 137.99 27.6107 138.672 29.36C139.398 31.1093 140.4 32.6453 141.68 33.968C143.003 35.248 144.539 36.2293 146.288 36.912C148.08 37.5947 150.043 37.936 152.176 37.936C154.224 37.936 156.208 37.616 158.128 36.976C160.091 36.2933 161.99 35.1627 163.824 33.584L169.712 41.072C167.28 42.9067 164.443 44.3147 161.2 45.296C158 46.2773 154.8 46.768 151.6 46.768ZM160.24 39.728V22.896H169.712V41.072L160.24 39.728ZM188.879 19.248H210.447V27.312H188.879V19.248ZM189.647 37.68H214.031V46H179.343V1.2H213.199V9.52H189.647V37.68ZM231.561 46V9.648H217.225V1.2H256.265V9.648H241.929V46H231.561ZM274.08 46L294.048 1.2H304.288L324.32 46H313.44L297.056 6.448H301.152L284.704 46H274.08ZM284.064 36.4L286.816 28.528H309.856L312.672 36.4H284.064ZM328.968 46V1.2H337.544L363.976 33.456H359.816V1.2H370.056V46H361.544L335.048 13.744H339.208V46H328.968Z"/>
<path d="M0.34325 118V73.2H10.7113V118H0.34325ZM21.3433 118V73.2H29.9193L56.3513 105.456H52.1912V73.2H62.4313V118H53.9193L27.4233 85.744H31.5833V118H21.3433ZM82.3108 118V81.648H67.9748V73.2H107.015V81.648H92.6788V118H82.3108ZM122.129 91.248H143.697V99.312H122.129V91.248ZM122.897 109.68H147.281V118H112.593V73.2H146.449V81.52H122.897V109.68ZM155.531 118V73.2H174.923C178.933 73.2 182.389 73.8613 185.291 75.184C188.192 76.464 190.432 78.32 192.011 80.752C193.589 83.184 194.379 86.0853 194.379 89.456C194.379 92.784 193.589 95.664 192.011 98.096C190.432 100.485 188.192 102.32 185.291 103.6C182.389 104.88 178.933 105.52 174.923 105.52H161.291L165.899 100.976V118H155.531ZM184.011 118L172.811 101.744H183.883L195.211 118H184.011ZM165.899 102.128L161.291 97.264H174.347C177.547 97.264 179.936 96.5813 181.515 95.216C183.093 93.808 183.883 91.888 183.883 89.456C183.883 86.9813 183.093 85.0613 181.515 83.696C179.936 82.3307 177.547 81.648 174.347 81.648H161.291L165.899 76.72V102.128ZM216.033 118L196.705 73.2H207.905L224.801 112.88H218.209L235.361 73.2H245.665L226.273 118H216.033ZM258.942 91.248H280.51V99.312H258.942V91.248ZM259.71 109.68H284.094V118H249.406V73.2H283.262V81.52H259.71V109.68ZM292.343 118V73.2H300.919L327.351 105.456H323.191V73.2H333.431V118H324.919L298.423 85.744H302.583V118H292.343ZM353.311 118V81.648H338.975V73.2H378.015V81.648H363.679V118H353.311ZM383.593 118V73.2H393.961V118H383.593ZM426.353 118.768C422.812 118.768 419.527 118.192 416.497 117.04C413.511 115.888 410.908 114.267 408.689 112.176C406.513 110.085 404.807 107.632 403.569 104.816C402.375 102 401.777 98.928 401.777 95.6C401.777 92.272 402.375 89.2 403.569 86.384C404.807 83.568 406.535 81.1147 408.753 79.024C410.972 76.9333 413.575 75.312 416.561 74.16C419.548 73.008 422.791 72.432 426.289 72.432C429.831 72.432 433.073 73.008 436.017 74.16C439.004 75.312 441.585 76.9333 443.761 79.024C445.98 81.1147 447.708 83.568 448.945 86.384C450.183 89.1573 450.801 92.2293 450.801 95.6C450.801 98.928 450.183 102.021 448.945 104.88C447.708 107.696 445.98 110.149 443.761 112.24C441.585 114.288 439.004 115.888 436.017 117.04C433.073 118.192 429.852 118.768 426.353 118.768ZM426.289 109.936C428.295 109.936 430.129 109.595 431.793 108.912C433.5 108.229 434.993 107.248 436.273 105.968C437.553 104.688 438.535 103.173 439.217 101.424C439.943 99.6747 440.305 97.7333 440.305 95.6C440.305 93.4667 439.943 91.5253 439.217 89.776C438.535 88.0267 437.553 86.512 436.273 85.232C435.036 83.952 433.564 82.9707 431.857 82.288C430.151 81.6053 428.295 81.264 426.289 81.264C424.284 81.264 422.428 81.6053 420.721 82.288C419.057 82.9707 417.585 83.952 416.305 85.232C415.025 86.512 414.023 88.0267 413.297 89.776C412.615 91.5253 412.273 93.4667 412.273 95.6C412.273 97.6907 412.615 99.632 413.297 101.424C414.023 103.173 415.004 104.688 416.241 105.968C417.521 107.248 419.015 108.229 420.721 108.912C422.428 109.595 424.284 109.936 426.289 109.936ZM458.593 118V73.2H467.169L493.601 105.456H489.441V73.2H499.681V118H491.169L464.673 85.744H468.833V118H458.593Z"/>
</mask>
<path d="M0.34325 118V73.2H10.7113V118H0.34325ZM21.3433 118V73.2H29.9193L56.3513 105.456H52.1912V73.2H62.4313V118H53.9193L27.4233 85.744H31.5833V118H21.3433ZM82.3108 118V81.648H67.9748V73.2H107.015V81.648H92.6788V118H82.3108ZM122.129 91.248H143.697V99.312H122.129V91.248ZM122.897 109.68H147.281V118H112.593V73.2H146.449V81.52H122.897V109.68ZM155.531 118V73.2H174.923C178.933 73.2 182.389 73.8613 185.291 75.184C188.192 76.464 190.432 78.32 192.011 80.752C193.589 83.184 194.379 86.0853 194.379 89.456C194.379 92.784 193.589 95.664 192.011 98.096C190.432 100.485 188.192 102.32 185.291 103.6C182.389 104.88 178.933 105.52 174.923 105.52H161.291L165.899 100.976V118H155.531ZM184.011 118L172.811 101.744H183.883L195.211 118H184.011ZM165.899 102.128L161.291 97.264H174.347C177.547 97.264 179.936 96.5813 181.515 95.216C183.093 93.808 183.883 91.888 183.883 89.456C183.883 86.9813 183.093 85.0613 181.515 83.696C179.936 82.3307 177.547 81.648 174.347 81.648H161.291L165.899 76.72V102.128ZM216.033 118L196.705 73.2H207.905L224.801 112.88H218.209L235.361 73.2H245.665L226.273 118H216.033ZM258.942 91.248H280.51V99.312H258.942V91.248ZM259.71 109.68H284.094V118H249.406V73.2H283.262V81.52H259.71V109.68ZM292.343 118V73.2H300.919L327.351 105.456H323.191V73.2H333.431V118H324.919L298.423 85.744H302.583V118H292.343ZM353.311 118V81.648H338.975V73.2H378.015V81.648H363.679V118H353.311ZM383.593 118V73.2H393.961V118H383.593ZM426.353 118.768C422.812 118.768 419.527 118.192 416.497 117.04C413.511 115.888 410.908 114.267 408.689 112.176C406.513 110.085 404.807 107.632 403.569 104.816C402.375 102 401.777 98.928 401.777 95.6C401.777 92.272 402.375 89.2 403.569 86.384C404.807 83.568 406.535 81.1147 408.753 79.024C410.972 76.9333 413.575 75.312 416.561 74.16C419.548 73.008 422.791 72.432 426.289 72.432C429.831 72.432 433.073 73.008 436.017 74.16C439.004 75.312 441.585 76.9333 443.761 79.024C445.98 81.1147 447.708 83.568 448.945 86.384C450.183 89.1573 450.801 92.2293 450.801 95.6C450.801 98.928 450.183 102.021 448.945 104.88C447.708 107.696 445.98 110.149 443.761 112.24C441.585 114.288 439.004 115.888 436.017 117.04C433.073 118.192 429.852 118.768 426.353 118.768ZM426.289 109.936C428.295 109.936 430.129 109.595 431.793 108.912C433.5 108.229 434.993 107.248 436.273 105.968C437.553 104.688 438.535 103.173 439.217 101.424C439.943 99.6747 440.305 97.7333 440.305 95.6C440.305 93.4667 439.943 91.5253 439.217 89.776C438.535 88.0267 437.553 86.512 436.273 85.232C435.036 83.952 433.564 82.9707 431.857 82.288C430.151 81.6053 428.295 81.264 426.289 81.264C424.284 81.264 422.428 81.6053 420.721 82.288C419.057 82.9707 417.585 83.952 416.305 85.232C415.025 86.512 414.023 88.0267 413.297 89.776C412.615 91.5253 412.273 93.4667 412.273 95.6C412.273 97.6907 412.615 99.632 413.297 101.424C414.023 103.173 415.004 104.688 416.241 105.968C417.521 107.248 419.015 108.229 420.721 108.912C422.428 109.595 424.284 109.936 426.289 109.936ZM458.593 118V73.2H467.169L493.601 105.456H489.441V73.2H499.681V118H491.169L464.673 85.744H468.833V118H458.593Z" fill="white"/>
<path d="M141.808 45.104L141.444 46.0352L141.452 46.0384L141.46 46.0414L141.808 45.104ZM134.064 40.24L133.371 40.9611L133.378 40.9678L134.064 40.24ZM128.944 32.88L128.024 33.2706L128.029 33.2823L128.944 32.88ZM128.944 14.32L128.029 13.9177L128.024 13.9294L128.944 14.32ZM134.128 6.96L134.814 7.68779L134.128 6.96ZM141.936 2.16L142.284 3.09749L142.296 3.093L141.936 2.16ZM162.48 2.416L162.094 3.33834L162.098 3.34016L162.48 2.416ZM170.544 8.176L171.223 8.9108L171.934 8.2543L171.301 7.52205L170.544 8.176ZM163.888 14.32L163.163 15.0087L163.842 15.7234L164.567 15.0548L163.888 14.32ZM158.576 10.544L158.17 11.4578L158.179 11.4616L158.187 11.4652L158.576 10.544ZM141.68 13.232L140.985 12.5134L140.979 12.5191L140.973 12.5249L141.68 13.232ZM138.672 17.776L137.749 17.393L137.744 17.4027L137.741 17.4125L138.672 17.776ZM138.672 29.36L137.741 29.7235L137.744 29.7333L137.749 29.743L138.672 29.36ZM141.68 33.968L140.962 34.6634L140.973 34.6752L140.985 34.6866L141.68 33.968ZM146.288 36.912L145.925 37.8436L145.932 37.8465L146.288 36.912ZM158.128 36.976L158.445 37.9248L158.457 37.9205L158.128 36.976ZM163.824 33.584L164.61 32.9659L163.964 32.1443L163.172 32.826L163.824 33.584ZM169.712 41.072L170.314 41.8703L171.129 41.2559L170.498 40.4539L169.712 41.072ZM161.2 45.296L160.911 44.3389L160.907 44.3399L161.2 45.296ZM160.24 39.728H159.24V40.5961L160.1 40.7181L160.24 39.728ZM160.24 22.896V21.896H159.24V22.896H160.24ZM169.712 22.896H170.712V21.896H169.712V22.896ZM169.712 41.072L169.572 42.0621L170.712 42.2239V41.072H169.712ZM151.6 45.768C148.165 45.768 145.02 45.2302 142.156 44.1666L141.46 46.0414C144.57 47.1965 147.953 47.768 151.6 47.768V45.768ZM142.173 44.1728C139.343 43.0656 136.872 41.5119 134.75 39.5122L133.378 40.9678C135.694 43.1495 138.385 44.8384 141.444 46.0352L142.173 44.1728ZM134.757 39.5189C132.677 37.5207 131.045 35.1763 129.86 32.4777L128.029 33.2823C129.318 36.2157 131.099 38.778 133.371 40.9611L134.757 39.5189ZM129.865 32.4894C128.728 29.809 128.152 26.8502 128.152 23.6H126.152C126.152 27.0911 126.771 30.319 128.024 33.2705L129.865 32.4894ZM128.152 23.6C128.152 20.3498 128.728 17.391 129.865 14.7105L128.024 13.9294C126.771 16.881 126.152 20.1089 126.152 23.6H128.152ZM129.86 14.7223C131.044 12.028 132.694 9.68561 134.814 7.68779L133.442 6.23221C131.125 8.41572 129.32 10.98 128.029 13.9177L129.86 14.7223ZM134.814 7.68779C136.931 5.69301 139.417 4.16231 142.284 3.09742L141.588 1.22257C138.482 2.37635 135.763 4.04565 133.442 6.23221L134.814 7.68779ZM142.296 3.093C145.155 1.99027 148.317 1.432 151.792 1.432V-0.568001C148.1 -0.568001 144.691 0.0257292 141.576 1.22699L142.296 3.093ZM151.792 1.432C155.648 1.432 159.077 2.07443 162.094 3.33834L162.867 1.49366C159.569 0.112234 155.872 -0.568001 151.792 -0.568001V1.432ZM162.098 3.34016C165.16 4.60571 167.718 6.43553 169.788 8.82995L171.301 7.52205C169.019 4.8818 166.2 2.87161 162.862 1.49183L162.098 3.34016ZM169.866 7.44119L163.21 13.5852L164.567 15.0548L171.223 8.9108L169.866 7.44119ZM164.613 13.6312C162.909 11.8377 161.027 10.4935 158.965 9.62275L158.187 11.4652C159.965 12.2158 161.624 13.389 163.163 15.0087L164.613 13.6312ZM158.982 9.63019C156.925 8.71579 154.695 8.264 152.304 8.264V10.264C154.436 10.264 156.387 10.6655 158.17 11.4578L158.982 9.63019ZM152.304 8.264C150.023 8.264 147.916 8.6221 145.996 9.35351L146.708 11.2225C148.372 10.5886 150.234 10.264 152.304 10.264V8.264ZM145.996 9.35351C144.083 10.0823 142.409 11.1352 140.985 12.5134L142.376 13.9506C143.597 12.7688 145.037 11.859 146.708 11.2225L145.996 9.35351ZM140.973 12.5249C139.596 13.9019 138.522 15.5281 137.749 17.393L139.596 18.159C140.273 16.5252 141.204 15.1221 142.387 13.9391L140.973 12.5249ZM137.741 17.4125C137.007 19.2923 136.648 21.3591 136.648 23.6H138.648C138.648 21.5743 138.972 19.7583 139.604 18.1395L137.741 17.4125ZM136.648 23.6C136.648 25.801 137.008 27.8459 137.741 29.7235L139.604 28.9965C138.971 27.3754 138.648 25.5803 138.648 23.6H136.648ZM137.749 29.743C138.521 31.605 139.592 33.2478 140.962 34.6634L142.399 33.2726C141.209 32.0429 140.275 30.6136 139.596 28.977L137.749 29.743ZM140.985 34.6866C142.405 36.0608 144.054 37.1137 145.925 37.8436L146.652 35.9804C145.024 35.345 143.601 34.4352 142.376 33.2494L140.985 34.6866ZM145.932 37.8465C147.85 38.5771 149.935 38.936 152.176 38.936V36.936C150.151 36.936 148.31 36.6123 146.644 35.9775L145.932 37.8465ZM152.176 38.936C154.33 38.936 156.421 38.5991 158.444 37.9247L157.812 36.0273C155.995 36.6329 154.118 36.936 152.176 36.936V38.936ZM158.457 37.9205C160.556 37.1903 162.562 35.9893 164.477 34.342L163.172 32.826C161.417 34.336 159.626 35.3963 157.8 36.0315L158.457 37.9205ZM163.038 34.2021L168.926 41.6901L170.498 40.4539L164.61 32.9659L163.038 34.2021ZM169.11 40.2737C166.782 42.0299 164.053 43.3878 160.911 44.3389L161.49 46.2531C164.833 45.2415 167.779 43.7834 170.314 41.8703L169.11 40.2737ZM160.907 44.3399C157.798 45.2935 154.696 45.768 151.6 45.768V47.768C154.904 47.768 158.203 47.2612 161.493 46.2521L160.907 44.3399ZM161.24 39.728V22.896H159.24V39.728H161.24ZM160.24 23.896H169.712V21.896H160.24V23.896ZM168.712 22.896V41.072H170.712V22.896H168.712ZM169.853 40.0819L160.381 38.7379L160.1 40.7181L169.572 42.0621L169.853 40.0819ZM188.879 19.248V18.248H187.879V19.248H188.879ZM210.447 19.248H211.447V18.248H210.447V19.248ZM210.447 27.312V28.312H211.447V27.312H210.447ZM188.879 27.312H187.879V28.312H188.879V27.312ZM189.647 37.68H188.647V38.68H189.647V37.68ZM214.031 37.68H215.031V36.68H214.031V37.68ZM214.031 46V47H215.031V46H214.031ZM179.343 46H178.343V47H179.343V46ZM179.343 1.2V0.199997H178.343V1.2H179.343ZM213.199 1.2H214.199V0.199997H213.199V1.2ZM213.199 9.52V10.52H214.199V9.52H213.199ZM189.647 9.52V8.52H188.647V9.52H189.647ZM188.879 20.248H210.447V18.248H188.879V20.248ZM209.447 19.248V27.312H211.447V19.248H209.447ZM210.447 26.312H188.879V28.312H210.447V26.312ZM189.879 27.312V19.248H187.879V27.312H189.879ZM189.647 38.68H214.031V36.68H189.647V38.68ZM213.031 37.68V46H215.031V37.68H213.031ZM214.031 45H179.343V47H214.031V45ZM180.343 46V1.2H178.343V46H180.343ZM179.343 2.2H213.199V0.199997H179.343V2.2ZM212.199 1.2V9.52H214.199V1.2H212.199ZM213.199 8.52H189.647V10.52H213.199V8.52ZM188.647 9.52V37.68H190.647V9.52H188.647ZM231.561 46H230.561V47H231.561V46ZM231.561 9.648H232.561V8.648H231.561V9.648ZM217.225 9.648H216.225V10.648H217.225V9.648ZM217.225 1.2V0.199997H216.225V1.2H217.225ZM256.265 1.2H257.265V0.199997H256.265V1.2ZM256.265 9.648V10.648H257.265V9.648H256.265ZM241.929 9.648V8.648H240.929V9.648H241.929ZM241.929 46V47H242.929V46H241.929ZM232.561 46V9.648H230.561V46H232.561ZM231.561 8.648H217.225V10.648H231.561V8.648ZM218.225 9.648V1.2H216.225V9.648H218.225ZM217.225 2.2H256.265V0.199997H217.225V2.2ZM255.265 1.2V9.648H257.265V1.2H255.265ZM256.265 8.648H241.929V10.648H256.265V8.648ZM240.929 9.648V46H242.929V9.648H240.929ZM241.929 45H231.561V47H241.929V45ZM274.08 46L273.167 45.5929L272.54 47H274.08V46ZM294.048 1.2V0.199997H293.399L293.135 0.792891L294.048 1.2ZM304.288 1.2L305.201 0.791802L304.937 0.199997H304.288V1.2ZM324.32 46V47H325.863L325.233 45.5918L324.32 46ZM313.44 46L312.516 46.3827L312.772 47H313.44V46ZM297.056 6.448V5.448H295.56L296.132 6.8307L297.056 6.448ZM301.152 6.448L302.076 6.83198L302.651 5.448H301.152V6.448ZM284.704 46V47H285.371L285.628 46.384L284.704 46ZM284.064 36.4L283.12 36.07L282.655 37.4H284.064V36.4ZM286.816 28.528V27.528H286.107L285.872 28.198L286.816 28.528ZM309.856 28.528L310.798 28.1912L310.561 27.528H309.856V28.528ZM312.672 36.4V37.4H314.092L313.614 36.0632L312.672 36.4ZM274.994 46.4071L294.962 1.6071L293.135 0.792891L273.167 45.5929L274.994 46.4071ZM294.048 2.2H304.288V0.199997H294.048V2.2ZM303.375 1.60819L323.407 46.4082L325.233 45.5918L305.201 0.791802L303.375 1.60819ZM324.32 45H313.44V47H324.32V45ZM314.364 45.6173L297.98 6.06529L296.132 6.8307L312.516 46.3827L314.364 45.6173ZM297.056 7.448H301.152V5.448H297.056V7.448ZM300.229 6.06402L283.781 45.616L285.628 46.384L302.076 6.83198L300.229 6.06402ZM284.704 45H274.08V47H284.704V45ZM285.008 36.73L287.76 28.858L285.872 28.198L283.12 36.07L285.008 36.73ZM286.816 29.528H309.856V27.528H286.816V29.528ZM308.915 28.8648L311.731 36.7368L313.614 36.0632L310.798 28.1912L308.915 28.8648ZM312.672 35.4H284.064V37.4H312.672V35.4ZM328.968 46H327.968V47H328.968V46ZM328.968 1.2V0.199997H327.968V1.2H328.968ZM337.544 1.2L338.318 0.566175L338.018 0.199997H337.544V1.2ZM363.976 33.456V34.456H366.089L364.75 32.8222L363.976 33.456ZM359.816 33.456H358.816V34.456H359.816V33.456ZM359.816 1.2V0.199997H358.816V1.2H359.816ZM370.056 1.2H371.056V0.199997H370.056V1.2ZM370.056 46V47H371.056V46H370.056ZM361.544 46L360.772 46.6347L361.072 47H361.544V46ZM335.048 13.744V12.744H332.933L334.276 14.3787L335.048 13.744ZM339.208 13.744H340.208V12.744H339.208V13.744ZM339.208 46V47H340.208V46H339.208ZM329.968 46V1.2H327.968V46H329.968ZM328.968 2.2H337.544V0.199997H328.968V2.2ZM336.771 1.83382L363.203 34.0898L364.75 32.8222L338.318 0.566175L336.771 1.83382ZM363.976 32.456H359.816V34.456H363.976V32.456ZM360.816 33.456V1.2H358.816V33.456H360.816ZM359.816 2.2H370.056V0.199997H359.816V2.2ZM369.056 1.2V46H371.056V1.2H369.056ZM370.056 45H361.544V47H370.056V45ZM362.317 45.3653L335.821 13.1093L334.276 14.3787L360.772 46.6347L362.317 45.3653ZM335.048 14.744H339.208V12.744H335.048V14.744ZM338.208 13.744V46H340.208V13.744H338.208ZM339.208 45H328.968V47H339.208V45ZM0.34325 118H-0.65675V119H0.34325V118ZM0.34325 73.2V72.2H-0.65675V73.2H0.34325ZM10.7113 73.2H11.7113V72.2H10.7113V73.2ZM10.7113 118V119H11.7113V118H10.7113ZM1.34325 118V73.2H-0.65675V118H1.34325ZM0.34325 74.2H10.7113V72.2H0.34325V74.2ZM9.71125 73.2V118H11.7113V73.2H9.71125ZM10.7113 117H0.34325V119H10.7113V117ZM21.3433 118H20.3433V119H21.3433V118ZM21.3433 73.2V72.2H20.3433V73.2H21.3433ZM29.9193 73.2L30.6927 72.5662L30.3927 72.2H29.9193V73.2ZM56.3513 105.456V106.456H58.4636L57.1247 104.822L56.3513 105.456ZM52.1913 105.456H51.1913V106.456H52.1913V105.456ZM52.1913 73.2V72.2H51.1913V73.2H52.1913ZM62.4313 73.2H63.4313V72.2H62.4313V73.2ZM62.4313 118V119H63.4313V118H62.4313ZM53.9193 118L53.1465 118.635L53.4466 119H53.9193V118ZM27.4232 85.744V84.744H25.3077L26.6505 86.3787L27.4232 85.744ZM31.5833 85.744H32.5833V84.744H31.5833V85.744ZM31.5833 118V119H32.5833V118H31.5833ZM22.3433 118V73.2H20.3433V118H22.3433ZM21.3433 74.2H29.9193V72.2H21.3433V74.2ZM29.1458 73.8338L55.5778 106.09L57.1247 104.822L30.6927 72.5662L29.1458 73.8338ZM56.3513 104.456H52.1913V106.456H56.3513V104.456ZM53.1913 105.456V73.2H51.1913V105.456H53.1913ZM52.1913 74.2H62.4313V72.2H52.1913V74.2ZM61.4313 73.2V118H63.4313V73.2H61.4313ZM62.4313 117H53.9193V119H62.4313V117ZM54.692 117.365L28.196 85.1093L26.6505 86.3787L53.1465 118.635L54.692 117.365ZM27.4232 86.744H31.5833V84.744H27.4232V86.744ZM30.5833 85.744V118H32.5833V85.744H30.5833ZM31.5833 117H21.3433V119H31.5833V117ZM82.3108 118H81.3108V119H82.3108V118ZM82.3108 81.648H83.3108V80.648H82.3108V81.648ZM67.9747 81.648H66.9747V82.648H67.9747V81.648ZM67.9747 73.2V72.2H66.9747V73.2H67.9747ZM107.015 73.2H108.015V72.2H107.015V73.2ZM107.015 81.648V82.648H108.015V81.648H107.015ZM92.6788 81.648V80.648H91.6788V81.648H92.6788ZM92.6788 118V119H93.6788V118H92.6788ZM83.3108 118V81.648H81.3108V118H83.3108ZM82.3108 80.648H67.9747V82.648H82.3108V80.648ZM68.9747 81.648V73.2H66.9747V81.648H68.9747ZM67.9747 74.2H107.015V72.2H67.9747V74.2ZM106.015 73.2V81.648H108.015V73.2H106.015ZM107.015 80.648H92.6788V82.648H107.015V80.648ZM91.6788 81.648V118H93.6788V81.648H91.6788ZM92.6788 117H82.3108V119H92.6788V117ZM122.129 91.248V90.248H121.129V91.248H122.129ZM143.697 91.248H144.697V90.248H143.697V91.248ZM143.697 99.312V100.312H144.697V99.312H143.697ZM122.129 99.312H121.129V100.312H122.129V99.312ZM122.897 109.68H121.897V110.68H122.897V109.68ZM147.281 109.68H148.281V108.68H147.281V109.68ZM147.281 118V119H148.281V118H147.281ZM112.593 118H111.593V119H112.593V118ZM112.593 73.2V72.2H111.593V73.2H112.593ZM146.449 73.2H147.449V72.2H146.449V73.2ZM146.449 81.52V82.52H147.449V81.52H146.449ZM122.897 81.52V80.52H121.897V81.52H122.897ZM122.129 92.248H143.697V90.248H122.129V92.248ZM142.697 91.248V99.312H144.697V91.248H142.697ZM143.697 98.312H122.129V100.312H143.697V98.312ZM123.129 99.312V91.248H121.129V99.312H123.129ZM122.897 110.68H147.281V108.68H122.897V110.68ZM146.281 109.68V118H148.281V109.68H146.281ZM147.281 117H112.593V119H147.281V117ZM113.593 118V73.2H111.593V118H113.593ZM112.593 74.2H146.449V72.2H112.593V74.2ZM145.449 73.2V81.52H147.449V73.2H145.449ZM146.449 80.52H122.897V82.52H146.449V80.52ZM121.897 81.52V109.68H123.897V81.52H121.897ZM155.531 118H154.531V119H155.531V118ZM155.531 73.2V72.2H154.531V73.2H155.531ZM185.291 75.184L184.876 76.094L184.887 76.0989L185.291 75.184ZM192.011 80.752L191.172 81.2965L192.011 80.752ZM192.011 98.096L192.845 98.6473L192.85 98.6405L192.011 98.096ZM185.291 103.6L185.694 104.515L185.291 103.6ZM161.291 105.52L160.589 104.808L158.852 106.52H161.291V105.52ZM165.899 100.976H166.899V98.5855L165.197 100.264L165.899 100.976ZM165.899 118V119H166.899V118H165.899ZM184.011 118L183.187 118.567L183.485 119H184.011V118ZM172.811 101.744V100.744H170.907L171.987 102.311L172.811 101.744ZM183.883 101.744L184.703 101.172L184.405 100.744H183.883V101.744ZM195.211 118V119H197.126L196.031 117.428L195.211 118ZM165.899 102.128L165.173 102.816L166.899 104.638V102.128H165.899ZM161.291 97.264V96.264H158.966L160.565 97.9517L161.291 97.264ZM181.515 95.216L182.169 95.9724L182.175 95.9674L182.18 95.9623L181.515 95.216ZM161.291 81.648L160.56 80.965L158.987 82.648H161.291V81.648ZM165.899 76.72H166.899V74.1864L165.168 76.037L165.899 76.72ZM156.531 118V73.2H154.531V118H156.531ZM155.531 74.2H174.923V72.2H155.531V74.2ZM174.923 74.2C178.826 74.2 182.134 74.8438 184.876 76.0939L185.706 74.2741C182.645 72.8788 179.041 72.2 174.923 72.2V74.2ZM184.887 76.0989C187.628 77.3081 189.709 79.0429 191.172 81.2965L192.85 80.2075C191.155 77.5971 188.756 75.6199 185.694 74.2691L184.887 76.0989ZM191.172 81.2965C192.629 83.5414 193.379 86.2465 193.379 89.456H195.379C195.379 85.9242 194.55 82.8266 192.85 80.2075L191.172 81.2965ZM193.379 89.456C193.379 92.62 192.631 95.3046 191.172 97.5515L192.85 98.6405C194.548 96.0234 195.379 92.948 195.379 89.456H193.379ZM191.176 97.5447C189.715 99.7572 187.632 101.474 184.887 102.685L185.694 104.515C188.752 103.166 191.15 101.214 192.845 98.6473L191.176 97.5447ZM184.887 102.685C182.142 103.896 178.83 104.52 174.923 104.52V106.52C179.037 106.52 182.637 105.864 185.694 104.515L184.887 102.685ZM174.923 104.52H161.291V106.52H174.923V104.52ZM161.993 106.232L166.601 101.688L165.197 100.264L160.589 104.808L161.993 106.232ZM164.899 100.976V118H166.899V100.976H164.899ZM165.899 117H155.531V119H165.899V117ZM184.834 117.433L173.634 101.177L171.987 102.311L183.187 118.567L184.834 117.433ZM172.811 102.744H183.883V100.744H172.811V102.744ZM183.062 102.316L194.39 118.572L196.031 117.428L184.703 101.172L183.062 102.316ZM195.211 117H184.011V119H195.211V117ZM166.625 101.44L162.017 96.5763L160.565 97.9517L165.173 102.816L166.625 101.44ZM161.291 98.264H174.347V96.264H161.291V98.264ZM174.347 98.264C177.664 98.264 180.333 97.5599 182.169 95.9724L180.861 94.4596C179.539 95.6027 177.429 96.264 174.347 96.264V98.264ZM182.18 95.9623C184.005 94.3353 184.883 92.1259 184.883 89.456H182.883C182.883 91.6501 182.182 93.2807 180.849 94.4697L182.18 95.9623ZM184.883 89.456C184.883 86.7503 184.008 84.5306 182.169 82.9396L180.861 84.4524C182.178 85.5921 182.883 87.2124 182.883 89.456H184.883ZM182.169 82.9396C180.333 81.3521 177.664 80.648 174.347 80.648V82.648C177.429 82.648 179.539 83.3093 180.861 84.4524L182.169 82.9396ZM174.347 80.648H161.291V82.648H174.347V80.648ZM162.021 82.331L166.629 77.403L165.168 76.037L160.56 80.965L162.021 82.331ZM164.899 76.72V102.128H166.899V76.72H164.899ZM216.033 118L215.115 118.396L215.376 119H216.033V118ZM196.705 73.2V72.2H195.185L195.787 73.5961L196.705 73.2ZM207.905 73.2L208.825 72.8082L208.566 72.2H207.905V73.2ZM224.801 112.88V113.88H226.314L225.721 112.488L224.801 112.88ZM218.209 112.88L217.291 112.483L216.688 113.88H218.209V112.88ZM235.361 73.2V72.2H234.704L234.443 72.8032L235.361 73.2ZM245.665 73.2L246.583 73.5972L247.188 72.2H245.665V73.2ZM226.273 118V119H226.93L227.191 118.397L226.273 118ZM216.951 117.604L197.623 72.8039L195.787 73.5961L215.115 118.396L216.951 117.604ZM196.705 74.2H207.905V72.2H196.705V74.2ZM206.985 73.5918L223.881 113.272L225.721 112.488L208.825 72.8082L206.985 73.5918ZM224.801 111.88H218.209V113.88H224.801V111.88ZM219.127 113.277L236.279 73.5968L234.443 72.8032L217.291 112.483L219.127 113.277ZM235.361 74.2H245.665V72.2H235.361V74.2ZM244.748 72.8028L225.356 117.603L227.191 118.397L246.583 73.5972L244.748 72.8028ZM226.273 117H216.033V119H226.273V117ZM258.942 91.248V90.248H257.942V91.248H258.942ZM280.51 91.248H281.51V90.248H280.51V91.248ZM280.51 99.312V100.312H281.51V99.312H280.51ZM258.942 99.312H257.942V100.312H258.942V99.312ZM259.71 109.68H258.71V110.68H259.71V109.68ZM284.094 109.68H285.094V108.68H284.094V109.68ZM284.094 118V119H285.094V118H284.094ZM249.406 118H248.406V119H249.406V118ZM249.406 73.2V72.2H248.406V73.2H249.406ZM283.262 73.2H284.262V72.2H283.262V73.2ZM283.262 81.52V82.52H284.262V81.52H283.262ZM259.71 81.52V80.52H258.71V81.52H259.71ZM258.942 92.248H280.51V90.248H258.942V92.248ZM279.51 91.248V99.312H281.51V91.248H279.51ZM280.51 98.312H258.942V100.312H280.51V98.312ZM259.942 99.312V91.248H257.942V99.312H259.942ZM259.71 110.68H284.094V108.68H259.71V110.68ZM283.094 109.68V118H285.094V109.68H283.094ZM284.094 117H249.406V119H284.094V117ZM250.406 118V73.2H248.406V118H250.406ZM249.406 74.2H283.262V72.2H249.406V74.2ZM282.262 73.2V81.52H284.262V73.2H282.262ZM283.262 80.52H259.71V82.52H283.262V80.52ZM258.71 81.52V109.68H260.71V81.52H258.71ZM292.343 118H291.343V119H292.343V118ZM292.343 73.2V72.2H291.343V73.2H292.343ZM300.919 73.2L301.693 72.5662L301.393 72.2H300.919V73.2ZM327.351 105.456V106.456H329.464L328.125 104.822L327.351 105.456ZM323.191 105.456H322.191V106.456H323.191V105.456ZM323.191 73.2V72.2H322.191V73.2H323.191ZM333.431 73.2H334.431V72.2H333.431V73.2ZM333.431 118V119H334.431V118H333.431ZM324.919 118L324.147 118.635L324.447 119H324.919V118ZM298.423 85.744V84.744H296.308L297.651 86.3787L298.423 85.744ZM302.583 85.744H303.583V84.744H302.583V85.744ZM302.583 118V119H303.583V118H302.583ZM293.343 118V73.2H291.343V118H293.343ZM292.343 74.2H300.919V72.2H292.343V74.2ZM300.146 73.8338L326.578 106.09L328.125 104.822L301.693 72.5662L300.146 73.8338ZM327.351 104.456H323.191V106.456H327.351V104.456ZM324.191 105.456V73.2H322.191V105.456H324.191ZM323.191 74.2H333.431V72.2H323.191V74.2ZM332.431 73.2V118H334.431V73.2H332.431ZM333.431 117H324.919V119H333.431V117ZM325.692 117.365L299.196 85.1093L297.651 86.3787L324.147 118.635L325.692 117.365ZM298.423 86.744H302.583V84.744H298.423V86.744ZM301.583 85.744V118H303.583V85.744H301.583ZM302.583 117H292.343V119H302.583V117ZM353.311 118H352.311V119H353.311V118ZM353.311 81.648H354.311V80.648H353.311V81.648ZM338.975 81.648H337.975V82.648H338.975V81.648ZM338.975 73.2V72.2H337.975V73.2H338.975ZM378.015 73.2H379.015V72.2H378.015V73.2ZM378.015 81.648V82.648H379.015V81.648H378.015ZM363.679 81.648V80.648H362.679V81.648H363.679ZM363.679 118V119H364.679V118H363.679ZM354.311 118V81.648H352.311V118H354.311ZM353.311 80.648H338.975V82.648H353.311V80.648ZM339.975 81.648V73.2H337.975V81.648H339.975ZM338.975 74.2H378.015V72.2H338.975V74.2ZM377.015 73.2V81.648H379.015V73.2H377.015ZM378.015 80.648H363.679V82.648H378.015V80.648ZM362.679 81.648V118H364.679V81.648H362.679ZM363.679 117H353.311V119H363.679V117ZM383.593 118H382.593V119H383.593V118ZM383.593 73.2V72.2H382.593V73.2H383.593ZM393.961 73.2H394.961V72.2H393.961V73.2ZM393.961 118V119H394.961V118H393.961ZM384.593 118V73.2H382.593V118H384.593ZM383.593 74.2H393.961V72.2H383.593V74.2ZM392.961 73.2V118H394.961V73.2H392.961ZM393.961 117H383.593V119H393.961V117ZM416.497 117.04L416.137 117.973L416.142 117.975L416.497 117.04ZM408.689 112.176L407.996 112.897L408.003 112.904L408.689 112.176ZM403.569 104.816L402.649 105.207L402.654 105.218L403.569 104.816ZM403.569 86.384L402.654 85.9817L402.649 85.9934L403.569 86.384ZM416.561 74.16L416.201 73.227L416.561 74.16ZM436.017 74.16L435.653 75.0912L435.657 75.093L436.017 74.16ZM443.761 79.024L443.068 79.7451L443.075 79.7518L443.761 79.024ZM448.945 86.384L448.03 86.7863L448.032 86.7914L448.945 86.384ZM448.945 104.88L449.861 105.282L449.863 105.277L448.945 104.88ZM443.761 112.24L444.447 112.968L444.447 112.968L443.761 112.24ZM436.017 117.04L435.657 116.107L435.653 116.109L436.017 117.04ZM431.793 108.912L431.422 107.983L431.414 107.987L431.793 108.912ZM436.273 105.968L435.566 105.261L436.273 105.968ZM439.217 101.424L438.294 101.041L438.289 101.051L438.286 101.06L439.217 101.424ZM439.217 89.776L438.286 90.1395L438.289 90.1493L438.294 90.159L439.217 89.776ZM436.273 85.232L435.554 85.927L435.56 85.9331L435.566 85.9391L436.273 85.232ZM431.857 82.288L431.486 83.2165L431.857 82.288ZM420.721 82.288L420.35 81.3595L420.342 81.3628L420.721 82.288ZM416.305 85.232L417.012 85.9391L416.305 85.232ZM413.297 89.776L412.374 89.393L412.369 89.4027L412.366 89.4125L413.297 89.776ZM413.297 101.424L412.363 101.78L412.368 101.794L412.374 101.807L413.297 101.424ZM416.241 105.968L415.522 106.663L415.528 106.669L415.534 106.675L416.241 105.968ZM420.721 108.912L420.35 109.84L420.721 108.912ZM426.353 117.768C422.922 117.768 419.758 117.21 416.853 116.105L416.142 117.975C419.295 119.174 422.702 119.768 426.353 119.768V117.768ZM416.857 116.107C413.985 114.999 411.495 113.446 409.375 111.448L408.003 112.904C410.321 115.088 413.036 116.777 416.137 117.973L416.857 116.107ZM409.382 111.455C407.302 109.457 405.671 107.112 404.485 104.414L402.654 105.218C403.943 108.152 405.724 110.714 407.996 112.897L409.382 111.455ZM404.49 104.425C403.352 101.743 402.777 98.8057 402.777 95.6H400.777C400.777 99.0503 401.397 102.257 402.649 105.207L404.49 104.425ZM402.777 95.6C402.777 92.3943 403.352 89.4565 404.49 86.7746L402.649 85.9934C401.397 88.9435 400.777 92.1497 400.777 95.6H402.777ZM404.485 86.7863C405.669 84.092 407.319 81.7496 409.439 79.7518L408.067 78.2962C405.75 80.4797 403.945 83.044 402.654 85.9817L404.485 86.7863ZM409.439 79.7518C411.559 77.7544 414.049 76.2007 416.921 75.093L416.201 73.227C413.1 74.4233 410.385 76.1123 408.067 78.2962L409.439 79.7518ZM416.921 75.093C419.783 73.9892 422.902 73.432 426.289 73.432V71.432C422.679 71.432 419.313 72.0268 416.201 73.227L416.921 75.093ZM426.289 73.432C429.721 73.432 432.838 73.9898 435.653 75.0912L436.382 73.2288C433.308 72.0262 429.94 71.432 426.289 71.432V73.432ZM435.657 75.093C438.528 76.2001 440.994 77.752 443.068 79.7451L444.454 78.3029C442.177 76.1147 439.48 74.4239 436.377 73.227L435.657 75.093ZM443.075 79.7518C445.196 81.7496 446.846 84.092 448.03 86.7863L449.861 85.9817C448.57 83.044 446.764 80.4797 444.447 78.2962L443.075 79.7518ZM448.032 86.7914C449.206 89.4231 449.801 92.3542 449.801 95.6H451.801C451.801 92.1045 451.159 88.8916 449.858 85.9766L448.032 86.7914ZM449.801 95.6C449.801 98.8008 449.207 101.758 448.028 104.483L449.863 105.277C451.158 102.285 451.801 99.0552 451.801 95.6H449.801ZM448.03 104.478C446.846 107.172 445.196 109.514 443.075 111.512L444.447 112.968C446.764 110.784 448.57 108.22 449.861 105.282L448.03 104.478ZM443.076 111.512C441.001 113.465 438.532 114.998 435.657 116.107L436.377 117.973C439.476 116.778 442.17 115.111 444.447 112.968L443.076 111.512ZM435.653 116.109C432.837 117.211 429.741 117.768 426.353 117.768V119.768C429.963 119.768 433.31 119.173 436.382 117.971L435.653 116.109ZM426.289 110.936C428.41 110.936 430.375 110.575 432.173 109.837L431.414 107.987C429.883 108.615 428.179 108.936 426.289 108.936V110.936ZM432.165 109.84C433.995 109.108 435.603 108.052 436.98 106.675L435.566 105.261C434.383 106.444 433.005 107.35 431.422 107.984L432.165 109.84ZM436.98 106.675C438.362 105.294 439.418 103.661 440.149 101.788L438.286 101.06C437.651 102.686 436.745 104.082 435.566 105.261L436.98 106.675ZM440.141 101.807C440.923 99.9218 441.305 97.8482 441.305 95.6H439.305C439.305 97.6185 438.963 99.4275 438.294 101.041L440.141 101.807ZM441.305 95.6C441.305 93.3518 440.923 91.2782 440.141 89.393L438.294 90.159C438.963 91.7725 439.305 93.5815 439.305 95.6H441.305ZM440.149 89.4125C439.418 87.5392 438.362 85.9063 436.98 84.5249L435.566 85.9391C436.745 87.1177 437.651 88.5141 438.286 90.1395L440.149 89.4125ZM436.992 84.537C435.654 83.1522 434.062 82.0929 432.229 81.3595L431.486 83.2165C433.066 83.8485 434.418 84.7518 435.554 85.927L436.992 84.537ZM432.229 81.3595C430.394 80.6255 428.41 80.264 426.289 80.264V82.264C428.179 82.264 429.908 82.5852 431.486 83.2165L432.229 81.3595ZM426.289 80.264C424.168 80.264 422.185 80.6255 420.35 81.3595L421.093 83.2165C422.671 82.5852 424.4 82.264 426.289 82.264V80.264ZM420.342 81.3628C418.554 82.0961 416.971 83.1518 415.598 84.5249L417.012 85.9391C418.199 84.7521 419.56 83.8452 421.101 83.2132L420.342 81.3628ZM415.598 84.5249C414.221 85.9019 413.147 87.5281 412.374 89.393L414.221 90.159C414.898 88.5252 415.829 87.1221 417.012 85.9391L415.598 84.5249ZM412.366 89.4125C411.632 91.2923 411.273 93.3591 411.273 95.6H413.273C413.273 93.5743 413.597 91.7583 414.229 90.1395L412.366 89.4125ZM411.273 95.6C411.273 97.8013 411.633 99.8645 412.363 101.78L414.232 101.068C413.596 99.3995 413.273 97.58 413.273 95.6H411.273ZM412.374 101.807C413.144 103.665 414.192 105.287 415.522 106.663L416.96 105.273C415.816 104.089 414.901 102.682 414.221 101.041L412.374 101.807ZM415.534 106.675C416.911 108.052 418.519 109.108 420.35 109.84L421.093 107.984C419.51 107.35 418.131 106.444 416.948 105.261L415.534 106.675ZM420.35 109.84C422.185 110.575 424.168 110.936 426.289 110.936V108.936C424.4 108.936 422.671 108.615 421.093 107.984L420.35 109.84ZM458.593 118H457.593V119H458.593V118ZM458.593 73.2V72.2H457.593V73.2H458.593ZM467.169 73.2L467.943 72.5662L467.643 72.2H467.169V73.2ZM493.601 105.456V106.456H495.714L494.375 104.822L493.601 105.456ZM489.441 105.456H488.441V106.456H489.441V105.456ZM489.441 73.2V72.2H488.441V73.2H489.441ZM499.681 73.2H500.681V72.2H499.681V73.2ZM499.681 118V119H500.681V118H499.681ZM491.169 118L490.397 118.635L490.697 119H491.169V118ZM464.673 85.744V84.744H462.558L463.901 86.3787L464.673 85.744ZM468.833 85.744H469.833V84.744H468.833V85.744ZM468.833 118V119H469.833V118H468.833ZM459.593 118V73.2H457.593V118H459.593ZM458.593 74.2H467.169V72.2H458.593V74.2ZM466.396 73.8338L492.828 106.09L494.375 104.822L467.943 72.5662L466.396 73.8338ZM493.601 104.456H489.441V106.456H493.601V104.456ZM490.441 105.456V73.2H488.441V105.456H490.441ZM489.441 74.2H499.681V72.2H489.441V74.2ZM498.681 73.2V118H500.681V73.2H498.681ZM499.681 117H491.169V119H499.681V117ZM491.942 117.365L465.446 85.1093L463.901 86.3787L490.397 118.635L491.942 117.365ZM464.673 86.744H468.833V84.744H464.673V86.744ZM467.833 85.744V118H469.833V85.744H467.833ZM468.833 117H458.593V119H468.833V117Z" fill="white" mask="url(#path-1-outside-1_1_330)"/>
</svg>
